<?xml version="1.0" standalone="no"?>
<!DOCTYPE svg PUBLIC "-//W3C//DTD SVG 20010904//EN"
 "http://www.w3.org/TR/2001/REC-SVG-20010904/DTD/svg10.dtd">
<svg version="1.0" xmlns="http://www.w3.org/2000/svg"
 width="1024.000000pt" height="1024.000000pt" viewBox="0 0 1024.000000 1024.000000"
 preserveAspectRatio="xMidYMid meet">

<g transform="translate(0.000000,1024.000000) scale(0.100000,-0.100000)"
fill="#000000" stroke="none">
<path d="M2076 9579 c-710 -75 -1295 -630 -1416 -1345 -20 -118 -20 -148 -17
-3129 l3 -3010 22 -99 c36 -163 82 -293 159 -446 225 -450 635 -766 1123 -867
80 -16 277 -17 3095 -21 2229 -2 3039 0 3120 8 744 79 1336 689 1425 1470 8
67 10 982 8 3070 l-4 2975 -21 97 c-159 715 -720 1224 -1433 1298 -117 12
-5949 11 -6064 -1z m5177 -1008 c181 -63 301 -244 284 -429 -8 -81 -14 -93
-228 -488 -173 -318 -183 -334 -199 -317 -16 17 -318 564 -367 664 -133 273
68 587 378 589 50 0 95 -7 132 -19z m-2208 -585 c583 -102 1067 -305 1587
-666 175 -122 464 -346 1218 -945 91 -72 289 -230 440 -350 420 -334 497 -400
559 -485 112 -150 163 -312 142 -444 -15 -93 -64 -193 -140 -283 -33 -39 -170
-170 -304 -291 -316 -285 -430 -410 -582 -637 -175 -261 -313 -591 -395 -940
-29 -128 -86 -295 -136 -404 -92 -197 -231 -363 -397 -474 -122 -81 -381 -217
-667 -350 -383 -179 -363 -172 -510 -172 -145 0 -95 -17 -575 195 -654 290
-1271 583 -2110 1002 -794 396 -832 419 -919 537 -97 131 -114 199 -126 486
-13 306 -26 448 -56 638 -23 136 -25 169 -16 235 5 42 8 80 6 83 -2 4 -183
104 -403 224 -351 191 -402 221 -415 250 -21 44 -11 89 26 120 34 29 75 32
121 9 18 -9 192 -104 388 -210 196 -107 361 -194 365 -194 5 0 24 26 42 58 18
31 69 98 113 147 44 50 116 131 160 180 145 162 287 394 383 628 60 143 134
370 222 682 128 449 197 622 321 809 193 289 521 489 929 565 156 29 158 29
379 26 162 -2 229 -8 350 -29z m-2667 -102 c63 -31 106 -78 129 -143 15 -44
21 -50 52 -56 81 -15 149 -67 182 -140 17 -36 19 -71 19 -360 l0 -321 -32 -54
c-22 -37 -49 -64 -82 -85 l-49 -30 -332 0 -332 0 -49 30 c-30 19 -60 49 -79
79 l-30 49 -3 318 c-3 308 -2 320 19 369 33 78 93 123 190 144 21 5 29 15 39
50 40 143 221 219 358 150z"/>
<path d="M7055 8388 c-112 -39 -175 -178 -129 -286 43 -104 168 -160 271 -121
40 15 92 67 114 114 76 165 -87 352 -256 293z"/>
<path d="M4429 7805 c-322 -52 -573 -168 -750 -344 -175 -176 -265 -368 -414
-892 -233 -815 -367 -1087 -729 -1483 -115 -126 -206 -242 -206 -263 0 -4 82
-53 183 -107 265 -144 684 -375 735 -405 36 -21 47 -36 62 -78 35 -99 83 -143
156 -143 20 0 52 9 70 21 l34 20 102 -56 103 -57 135 140 c74 77 237 245 363
375 l227 235 -2 453 -3 454 -30 5 c-30 5 -30 5 -33 83 l-3 77 314 0 314 0 5
968 c3 532 4 969 3 970 -2 2 -43 10 -92 18 -129 22 -438 27 -544 9z m-172
-647 c60 -28 113 -81 144 -144 20 -41 24 -64 24 -139 0 -76 -5 -99 -27 -146
-28 -62 -88 -128 -139 -155 -18 -9 -58 -19 -90 -21 -49 -5 -67 -2 -113 21 -66
32 -119 89 -154 165 -37 79 -38 203 -2 276 30 61 89 121 143 146 60 27 154 25
214 -3z m-249 -675 c43 -26 56 -28 147 -28 90 0 105 3 147 27 l47 26 35 -26
c87 -68 138 -168 144 -287 5 -99 -13 -155 -51 -155 -34 0 -43 16 -51 83 -7 63
-29 127 -58 169 -19 27 -20 27 -49 13 -16 -9 -29 -18 -29 -21 0 -2 12 -28 27
-57 22 -42 27 -66 27 -127 l1 -75 -192 -3 -193 -2 0 72 c0 51 6 86 20 117 25
55 25 55 -6 70 -19 9 -30 9 -40 0 -21 -17 -54 -115 -54 -160 0 -53 -15 -79
-45 -79 -77 0 -85 178 -14 319 25 50 116 151 136 151 2 0 25 -12 51 -27z m342
-702 l0 -150 -27 -21 c-20 -16 -36 -20 -58 -16 -50 11 -60 28 -64 121 l-3 85
-49 0 -48 0 -3 -86 c-3 -81 -5 -88 -30 -107 -18 -13 -34 -18 -51 -13 -53 13
-57 25 -57 187 l0 149 195 0 195 0 0 -149z m-931 29 c-20 -11 -61 -46 -91 -80
-53 -58 -56 -60 -106 -60 -65 0 -79 6 -97 41 -21 39 -19 53 11 88 l26 31 146
0 147 -1 -36 -19z m451 -40 c0 -33 -3 -60 -7 -60 -3 0 -29 21 -57 48 -29 26
-61 52 -71 59 -17 10 -7 12 58 12 l77 1 0 -60z m-214 -5 c68 -20 117 -64 153
-137 56 -112 38 -244 -45 -337 -106 -118 -248 -123 -358 -13 -124 123 -121
327 6 436 70 61 154 78 244 51z m-315 -675 c21 0 39 -66 28 -104 -22 -78 -131
-206 -176 -206 -20 0 -63 46 -63 68 0 10 22 46 49 80 27 33 57 82 67 107 17
46 45 68 72 59 8 -2 18 -4 23 -4z m551 -1 c11 -6 30 -35 43 -64 13 -29 44 -76
69 -104 26 -29 46 -61 46 -72 0 -27 -44 -69 -71 -69 -32 0 -113 90 -151 168
-26 52 -29 67 -22 94 6 19 20 38 34 45 30 15 27 15 52 2z m-384 -41 c21 -13
51 -21 77 -21 26 0 57 8 79 21 48 29 56 28 56 -7 0 -29 25 -82 103 -215 42
-71 87 -212 87 -270 0 -14 -31 -16 -320 -16 l-320 0 4 23 c24 115 45 180 81
250 24 45 54 105 69 132 14 28 28 67 31 88 3 20 9 37 12 37 3 0 21 -10 41 -22z
m42 -690 c0 -94 -3 -118 -19 -145 -34 -54 -93 -57 -124 -4 -13 23 -17 53 -17
145 l0 116 80 0 80 0 0 -112z m242 35 c5 -122 0 -158 -27 -187 -30 -33 -66
-33 -102 -2 -27 24 -28 27 -31 145 l-4 121 80 0 80 0 4 -77z"/>
<path d="M5227 7357 c-4 -215 -7 -507 -7 -650 0 -224 -3 -273 -21 -360 -24
-117 -22 -252 5 -326 10 -26 16 -75 16 -122 l0 -79 68 0 c37 0 72 -4 79 -8 11
-7 23 -142 13 -142 -3 0 -28 23 -55 51 -59 60 -98 83 -127 73 -11 -3 -47 -33
-78 -67 l-58 -61 -206 3 -206 3 0 -366 0 -366 70 0 70 0 0 62 c0 62 0 62 -56
119 l-57 57 57 65 c32 36 155 159 273 273 l215 208 266 -268 265 -267 -62 -63
-61 -62 0 -62 0 -62 65 0 65 0 0 70 c0 70 1 71 40 109 45 43 51 74 20 113
l-20 26 29 5 c16 4 44 2 63 -3 18 -6 50 -10 70 -10 l38 0 0 -70 0 -70 -50 0
-50 0 0 -200 0 -200 -31 -59 c-18 -34 -33 -81 -36 -108 -7 -81 -12 -93 -35
-93 -41 0 -47 25 -48 188 l0 152 -60 0 -60 0 0 -226 0 -226 109 4 110 3 27
-58 c26 -54 27 -58 11 -75 -19 -18 -26 -18 -519 -21 l-158 -1 0 -133 0 -134
98 -6 c53 -4 127 -7 163 -7 36 0 94 -3 128 -6 l61 -7 0 -47 c0 -32 6 -55 20
-73 25 -31 25 -40 3 -33 -10 2 -123 8 -251 11 l-232 7 2 -263 3 -264 1116 -3
1116 -2 43 122 c23 68 58 158 77 201 19 44 33 81 31 83 -3 2 -251 15 -553 29
-302 14 -551 27 -553 30 -11 11 14 25 46 25 54 0 97 30 116 82 l17 44 62 -3
c100 -5 931 -43 943 -43 6 0 21 19 34 43 38 69 188 286 254 367 93 115 263
286 461 465 284 256 352 335 375 439 19 86 -25 204 -121 326 -40 51 -174 162
-646 538 -279 221 -281 223 -301 280 -59 160 -173 254 -331 271 -63 6 -74 11
-137 61 -528 416 -671 523 -872 655 -57 37 -106 65 -109 62 -6 -7 15 -1506 22
-1517 2 -4 53 -10 112 -14 207 -13 518 -36 553 -42 l35 -6 -27 -23 c-14 -12
-69 -48 -121 -79 l-94 -56 -114 10 c-63 5 -122 10 -132 10 -10 0 -63 43 -118
95 -96 91 -102 95 -145 95 -41 0 -49 -5 -123 -75 -72 -69 -82 -75 -120 -75
l-43 0 7 42 c4 23 13 60 19 83 l12 40 66 -3 65 -2 5 232 c3 128 2 258 -2 288
-5 30 -11 278 -15 550 -3 272 -8 510 -11 528 -5 30 -12 36 -119 87 -211 101
-443 188 -661 248 l-91 25 -6 -391z m569 -140 c76 -39 126 -100 142 -174 8
-35 6 -49 -9 -78 -11 -20 -19 -55 -19 -83 0 -112 -56 -214 -140 -257 -148 -75
-321 29 -337 203 -5 58 -5 59 25 71 19 8 36 27 48 52 38 85 98 101 157 44 20
-19 40 -35 46 -35 15 0 41 30 41 47 0 26 -76 91 -116 99 -72 13 -149 -27 -184
-97 -11 -21 -27 -39 -35 -39 -24 0 -18 70 11 128 66 132 236 187 370 119z
m-195 -713 c78 -20 163 -7 230 35 l47 29 31 -26 c81 -71 142 -213 143 -337 2
-116 -33 -181 -81 -156 -13 8 -20 27 -25 70 -13 110 -70 241 -106 241 -8 -1
-24 -7 -34 -15 -19 -14 -18 -16 12 -72 45 -85 54 -158 50 -407 -3 -215 -3
-218 -27 -237 -29 -23 -78 -25 -103 -2 -15 14 -18 32 -18 130 l0 113 -50 0
-50 0 0 -104 c0 -89 -3 -107 -21 -130 -26 -33 -79 -36 -109 -6 -19 19 -20 33
-20 288 l0 267 32 65 c18 36 34 67 35 70 2 3 -11 14 -28 24 -36 22 -35 23 -81
-72 -19 -40 -32 -84 -35 -125 -7 -81 -17 -99 -51 -95 -36 4 -55 45 -60 129 -8
127 35 242 124 337 l51 54 42 -26 c23 -15 69 -34 102 -42z m1873 -72 c64 -29
138 -101 171 -169 37 -75 48 -200 20 -223 -16 -13 -19 -13 -29 4 -57 96 -86
118 -163 123 -71 5 -111 -17 -150 -81 -47 -78 -88 -81 -147 -10 -36 43 -40 45
-88 43 -76 -4 -95 32 -63 120 33 95 107 167 208 203 66 24 175 19 241 -10z
m48 -344 c10 -5 27 -28 39 -51 12 -23 30 -51 40 -63 17 -18 18 -27 9 -74 -35
-186 -191 -293 -355 -245 -46 13 -70 28 -115 73 -65 65 -90 124 -90 210 0 77
37 116 71 76 22 -27 86 -54 126 -54 53 1 80 19 122 81 45 67 89 80 153 47z
m-1155 -510 c67 -67 123 -126 123 -130 0 -4 -12 -8 -27 -8 -22 0 -49 22 -125
97 l-97 97 -77 -75 c-43 -40 -88 -84 -100 -96 -24 -24 -74 -31 -74 -11 0 10
237 246 249 247 2 1 60 -54 128 -121z m1305 5 c98 -104 155 -233 165 -378 13
-181 -58 -303 -135 -231 -7 7 -17 50 -22 97 -11 109 -43 203 -97 286 -14 21
-17 22 -43 8 -16 -8 -31 -19 -35 -25 -3 -5 8 -33 24 -62 57 -103 61 -132 61
-473 l0 -312 -24 -26 c-45 -48 -111 -46 -149 5 -17 23 -20 42 -18 150 0 68 -2
128 -7 135 -4 7 -28 11 -57 9 l-50 -2 -5 -141 c-6 -157 -14 -177 -74 -188 -44
-9 -82 9 -106 47 -20 32 -21 46 -18 333 2 165 7 308 12 318 5 10 25 25 45 33
47 20 81 52 81 78 0 12 -22 73 -49 136 -57 136 -67 175 -51 195 18 22 46 18
92 -12 37 -25 51 -28 122 -28 93 0 148 17 222 70 27 19 52 35 55 35 3 0 31
-26 61 -57z m-664 -15 c13 -17 122 -288 122 -306 0 -7 -25 -25 -56 -39 -51
-23 -59 -24 -99 -13 -52 15 -87 8 -137 -27 -51 -35 -69 -28 -94 37 -42 106
-49 92 81 154 63 30 115 57 115 59 0 15 -14 37 -23 37 -6 0 -60 -23 -120 -51
-59 -28 -110 -49 -113 -46 -3 2 -6 17 -7 33 -2 27 5 32 138 101 141 73 174 83
193 61z m-619 -112 c8 -9 11 -73 9 -207 l-3 -194 -140 -6 c-79 -4 -148 -3
-157 3 -16 8 -18 28 -18 207 0 109 3 201 7 204 3 4 70 7 148 7 109 0 145 -3
154 -14z m260 -248 c11 -34 18 -64 15 -67 -3 -3 -46 -8 -95 -9 l-89 -4 0 71 0
71 74 0 74 0 21 -62z m334 -88 c69 -54 24 -160 -68 -160 -38 0 -85 50 -85 90
0 72 95 116 153 70z m-688 -290 c66 -66 68 -71 52 -87 -16 -16 -20 -14 -76 41
-56 55 -81 64 -81 30 0 -8 38 -55 84 -104 113 -118 136 -189 101 -306 -29 -98
-103 -165 -199 -181 -138 -22 -282 137 -262 289 13 98 85 190 164 211 32 9 41
15 36 27 -4 8 -9 32 -12 52 -3 32 1 42 26 68 52 51 84 43 167 -40z m-140 -720
c26 0 63 9 85 20 l40 20 0 -88 c0 -86 1 -90 40 -153 52 -82 66 -114 75 -166
l7 -43 -250 0 -249 0 8 46 c9 45 19 66 84 171 27 43 30 58 33 140 l4 92 39
-19 c21 -11 58 -20 84 -20z m-211 -42 c9 -12 16 -34 16 -48 0 -34 -48 -114
-103 -173 -36 -40 -50 -48 -73 -45 -20 2 -31 11 -38 30 -10 29 -9 31 62 121
21 26 44 64 51 85 21 57 57 70 85 30z m515 -42 c16 -35 47 -84 70 -109 26 -28
41 -54 41 -70 0 -30 -33 -57 -61 -50 -47 13 -159 173 -159 228 0 32 28 65 55
65 21 0 30 -11 54 -64z m-349 -481 c0 -72 -3 -88 -20 -105 -24 -24 -57 -26
-88 -4 -20 14 -22 23 -22 105 l0 89 65 0 65 0 0 -85z m210 0 c0 -94 -16 -125
-65 -125 -49 0 -65 31 -65 125 l0 85 65 0 65 0 0 -85z"/>
<path d="M5038 5374 c-98 -97 -178 -179 -178 -183 0 -4 16 -22 35 -41 28 -27
35 -42 35 -72 l0 -38 60 0 60 0 0 116 0 117 80 81 80 81 0 -197 0 -198 135 0
135 0 0 37 c0 30 8 45 42 80 l43 43 -175 175 -175 174 -177 -175z"/>
<path d="M5333 4892 l-123 -3 0 -274 0 -275 135 0 135 0 -2 277 c-2 175 -7
277 -13 277 -5 1 -65 0 -132 -2z"/>
<path d="M4930 4615 l0 -275 60 0 60 0 0 275 0 275 -60 0 -60 0 0 -275z"/>
<path d="M4650 4660 l0 -130 65 0 65 0 0 130 0 130 -65 0 -65 0 0 -130z"/>
<path d="M2260 4566 c0 -30 9 -107 20 -172 24 -149 38 -320 45 -584 4 -113 11
-227 16 -255 11 -56 50 -140 65 -140 6 0 145 141 310 314 328 344 398 420 393
425 -2 2 -155 85 -339 186 -184 101 -374 204 -422 231 l-88 48 0 -53z"/>
<path d="M4345 4381 c-77 -80 -202 -210 -277 -288 -76 -77 -138 -145 -138
-151 0 -10 320 -192 337 -192 5 0 122 114 261 253 l252 252 0 66 0 66 -93 -5
c-74 -4 -100 -1 -125 12 -37 19 -62 62 -62 106 0 16 -3 29 -7 29 -5 -1 -71
-68 -148 -148z"/>
<path d="M4900 4163 c-12 -16 -112 -120 -223 -233 -111 -113 -215 -219 -230
-236 l-28 -31 306 -167 c169 -92 308 -166 309 -164 2 1 6 195 10 431 l7 427
-65 0 c-59 0 -67 -3 -86 -27z"/>
<path d="M2920 3709 c-184 -194 -347 -366 -363 -385 l-27 -33 181 -91 182 -92
72 74 c385 392 656 681 649 688 -12 12 -342 190 -351 190 -5 0 -159 -158 -343
-351z"/>
<path d="M3410 3413 c-195 -201 -356 -371 -358 -377 -1 -6 77 -51 175 -100
l178 -88 125 130 c69 72 230 239 358 370 228 235 232 240 210 254 -28 18 -324
178 -329 178 -3 0 -164 -165 -359 -367z"/>
<path d="M3915 3150 c-193 -199 -350 -365 -350 -370 0 -19 1447 -711 1459
-699 3 2 6 230 8 507 l3 504 -375 205 c-206 113 -380 207 -385 209 -6 2 -168
-158 -360 -356z"/>
<path d="M5615 3017 c22 -13 153 -84 290 -157 203 -108 630 -338 1022 -551
l62 -34 66 65 c122 120 224 310 291 542 19 66 34 128 34 139 0 19 -19 19 -902
19 l-903 0 40 -23z"/>
<path d="M5198 2640 c-2 -198 -3 -424 -3 -501 l0 -141 90 -39 c50 -22 180 -79
290 -127 l200 -87 90 0 c89 0 92 1 235 65 231 102 682 329 675 339 -5 9 -249
143 -730 401 -115 62 -351 189 -522 281 -172 93 -315 169 -318 169 -3 0 -6
-162 -7 -360z"/>
<path d="M2216 7810 c-58 -18 -106 -85 -106 -149 0 -39 -40 -68 -109 -77 -64
-8 -106 -41 -122 -92 -7 -24 -9 -139 -7 -329 l3 -293 38 -37 37 -38 314 0 314
0 27 25 c54 50 55 56 55 370 0 334 -2 345 -74 380 -23 11 -57 20 -76 20 -20 0
-46 10 -67 26 -27 20 -33 32 -33 62 0 52 -32 100 -83 122 -46 21 -66 23 -111
10z m101 -92 c50 -46 16 -138 -52 -138 -65 0 -101 60 -71 118 9 17 21 32 28
35 31 13 73 6 95 -15z m253 -237 c6 -12 10 -125 10 -297 0 -244 -2 -280 -17
-296 -15 -17 -38 -18 -298 -18 -205 0 -284 3 -293 12 -9 9 -12 91 -12 308 0
163 3 300 7 303 3 4 138 7 299 7 280 0 294 -1 304 -19z"/>
</g>
</svg>
